<svg width="160" height="160" viewBox="0 0 160 160" fill="none" xmlns="http://www.w3.org/2000/svg">
<path d="M160 80C160 124.183 124.183 160 80 160C35.8173 160 2.17128e-05 124.183 1.39876e-05 80C6.26248e-06 35.8172 35.8172 -6.26248e-06 80 -1.39876e-05C124.183 -2.17128e-05 160 35.8172 160 80Z" fill="#282828"/>
<path d="M136.852 83.0435C136.723 84.908 138.012 86.0665 139.898 86.2605L136.717 86.4291L136.655 87.3301L140.997 87.6321L141.263 83.803L140.074 83.7203L139.906 86.1354C138.763 85.7541 138.044 85.0754 138.142 83.6614C138.257 82.0096 139.515 81.2798 141.292 81.4034C143.031 81.5244 144.202 82.4105 144.08 84.1624C143.986 85.5138 143.104 86.2572 142.011 86.4326L142.801 87.7198C144.355 87.2495 145.297 86.0073 145.42 84.243C145.601 81.6402 143.861 80.0732 141.396 79.9018C138.731 79.7164 137.002 80.8913 136.852 83.0435Z" fill="white"/>
<path d="M134.719 96.3151L135.936 96.6202L137.037 92.2279L139.373 92.8136L138.461 96.4515L139.678 96.7566L140.59 93.1186L142.756 93.6616L141.655 98.0539L142.871 98.3589L144.317 92.5918L136.165 90.548L134.719 96.3151Z" fill="white"/>
<path d="M132.483 102.362L139.068 105.147L138.062 107.527L139.217 108.015L141.778 101.962L140.622 101.473L139.621 103.842L133.036 101.056L132.483 102.362Z" fill="white"/>
<path d="M126.605 112.889L133.455 117.758L134.276 116.603L127.426 111.734L126.605 112.889Z" fill="white"/>
<path d="M123.668 116.771L127.081 119.898L128.277 120.858L126.881 120.617L120.863 119.832L119.982 120.794L126.178 126.472L127.135 125.427L123.732 122.308L122.498 121.297L124.029 121.576L129.932 122.375L130.822 121.404L124.626 115.726L123.668 116.771Z" fill="white"/>
<path d="M110.641 128.122L114.501 134.14L112.326 135.535L113.003 136.591L118.536 133.042L117.859 131.986L115.694 133.375L111.834 127.356L110.641 128.122Z" fill="white"/>
<path d="M102.771 132.195C100.514 133.169 99.7217 135.575 100.686 137.809C101.646 140.031 103.94 141.104 106.197 140.129C108.466 139.15 109.246 136.749 108.287 134.527C107.322 132.293 105.04 131.215 102.771 132.195ZM103.297 133.443C104.909 132.747 106.225 133.518 106.916 135.119C107.603 136.708 107.266 138.206 105.654 138.902C104.041 139.598 102.731 138.811 102.045 137.222C101.354 135.621 101.684 134.14 103.297 133.443Z" fill="white"/>
<path d="M93.4167 135.329C91.1819 135.853 90.4104 137.233 90.992 139.712L92.0921 144.401L93.4598 144.08L92.3568 139.379C91.9758 137.754 92.3462 136.972 93.7139 136.651C95.0572 136.336 95.7615 136.866 96.1425 138.49L97.2455 143.192L98.6133 142.871L97.5131 138.182C96.9315 135.703 95.6027 134.816 93.4167 135.329Z" fill="white"/>
<path d="M83.553 136.832C81.7001 136.946 80.4827 137.989 79.9948 139.653L81.2775 140.479C81.463 139.211 82.1835 138.261 83.6233 138.172C85.351 138.066 86.2414 139.255 86.3481 140.982C86.4557 142.723 85.7178 144 83.9901 144.107C82.5503 144.196 81.7191 143.355 81.3781 142.106L80.2069 143.084C80.8967 144.687 82.2325 145.56 84.0854 145.445C86.6644 145.286 87.9998 143.306 87.8505 140.89C87.7011 138.473 86.132 136.673 83.553 136.832Z" fill="white"/>
<path d="M75.6867 136.929L75.2641 140.567L71.252 140.101L71.6746 136.463L70.2667 136.299L69.2971 144.647L70.705 144.811L71.1073 141.347L75.1194 141.813L74.717 145.277L76.125 145.44L77.0946 137.092L75.6867 136.929Z" fill="white"/>
<path d="M58.2835 135.9L57.9045 136.91L60.8523 138.016L61.2313 137.006L58.2835 135.9Z" fill="white"/>
<path d="M49.2146 127.91C47.6602 126.872 46.0143 127.418 44.9105 128.958L46.3422 126.113L45.5911 125.612L43.1743 129.232L46.3666 131.363L47.0282 130.372L45.0148 129.028C45.9129 128.225 46.8594 127.937 48.0382 128.724C49.4153 129.643 49.4247 131.097 48.4357 132.578C47.4676 134.029 46.1174 134.605 44.6569 133.63C43.5302 132.878 43.3222 131.744 43.7126 130.707L42.2027 130.755C41.8398 132.338 42.4512 133.771 43.9221 134.753C46.092 136.202 48.3156 135.469 49.6876 133.414C51.1711 131.192 51.009 129.108 49.2146 127.91Z" fill="white"/>
<path d="M38.8587 119.577L37.9946 120.486L41.2769 123.606L39.6178 125.351L36.8992 122.768L36.0351 123.677L38.7537 126.261L37.2156 127.879L33.9333 124.76L33.0692 125.669L37.3789 129.765L43.1685 123.673L38.8587 119.577Z" fill="white"/>
<path d="M34.6521 114.583L28.9795 118.935L27.4066 116.885L26.4114 117.648L30.4124 122.863L31.4075 122.1L29.8423 120.06L35.5149 115.707L34.6521 114.583Z" fill="white"/>
<path d="M28.4105 104.327L20.7975 107.887L21.3979 109.171L29.0109 105.611L28.4105 104.327Z" fill="white"/>
<path d="M26.4682 99.8527L22.0603 101.265L20.6336 101.827L21.535 100.735L25.2015 95.8987L24.8035 94.6564L16.8 97.2205L17.2325 98.5703L21.6284 97.162L23.1187 96.5923L22.117 97.7826L18.4954 102.512L18.8972 103.767L26.9007 101.202L26.4682 99.8527Z" fill="white"/>
<path d="M23.0684 83.0476L15.929 83.4336L15.7895 80.8534L14.5369 80.9212L14.8918 87.4844L16.1444 87.4166L16.0055 84.849L23.1449 84.4629L23.0684 83.0476Z" fill="white"/>
<path d="M23.4241 73.9258C23.6983 71.4826 22.0036 69.601 19.5853 69.3295C17.1795 69.0594 15.1098 70.5185 14.8355 72.9617C14.5599 75.4173 16.256 77.2865 18.6618 77.5565C21.0801 77.828 23.1484 76.3814 23.4241 73.9258ZM22.0792 73.7622C21.8833 75.5073 20.561 76.2677 18.8283 76.0732C17.1081 75.8801 15.9748 74.8441 16.1707 73.0989C16.3666 71.3538 17.7 70.6073 19.4202 70.8004C21.1529 70.9949 22.2751 72.017 22.0792 73.7622Z" fill="white"/>
<path d="M25.2818 64.4004C25.9324 62.1991 25.1158 60.846 22.6739 60.1243L18.0547 58.7591L17.6565 60.1063L22.2878 61.4751C23.8876 61.9479 24.3843 62.6572 23.9862 64.0044C23.5951 65.3276 22.7855 65.677 21.1857 65.2041L16.5544 63.8354L16.1562 65.1826L20.7754 66.5478C23.2174 67.2695 24.6454 66.5536 25.2818 64.4004Z" fill="white"/>
<path d="M28.8491 55.0412C29.6727 53.3775 29.3748 51.8023 28.175 50.5505L26.8202 51.2515C27.8275 52.044 28.2918 53.1417 27.6518 54.4345C26.8838 55.9858 25.4092 56.1655 23.8579 55.3975C22.2953 54.6239 21.5554 53.3479 22.3234 51.7965C22.9634 50.5038 24.1066 50.202 25.3588 50.528L25.0948 49.0256C23.3606 48.8249 21.9386 49.5486 21.115 51.2123C19.9686 53.528 21.0204 55.6724 23.19 56.7465C25.3596 57.8205 27.7026 57.3569 28.8491 55.0412Z" fill="white"/>
<path d="M32.5887 48.2486L29.6426 46.0725L32.0423 42.8236L34.9884 44.9998L35.8306 43.8597L29.0706 38.8664L28.2285 40.0066L31.0333 42.0784L28.6336 45.3272L25.8287 43.2554L24.9866 44.3955L31.7466 49.3887L32.5887 48.2486Z" fill="white"/>
<path d="M41.9231 33.7498L41.2297 32.9234L38.8179 34.9473L39.5113 35.7736L41.9231 33.7498Z" fill="white"/>
<path d="M53.4433 29.66C55.1121 28.8183 55.4484 27.1174 54.6515 25.398L56.4221 28.0453L57.2285 27.6386L55.2685 23.7523L51.8414 25.4807L52.378 26.5447L54.5395 25.4545C54.796 26.6317 54.5806 27.5973 53.315 28.2355C51.8366 28.9811 50.5664 28.2731 49.7643 26.6827C48.9792 25.126 49.1424 23.6669 50.7104 22.8761C51.92 22.2661 53.0096 22.6438 53.7193 23.494L54.4215 22.1564C53.2229 21.0611 51.674 20.8869 50.0948 21.6834C47.7653 22.8582 47.3076 25.1542 48.4203 27.3605C49.6235 29.7461 51.517 30.6315 53.4433 29.66Z" fill="white"/>
<path d="M65.5192 24.8179L65.1546 23.6177L60.8219 24.934L60.1219 22.6296L63.7105 21.5394L63.3459 20.3392L59.7573 21.4294L59.1083 19.2931L63.441 17.9768L63.0764 16.7766L57.3875 18.5049L59.8303 26.5462L65.5192 24.8179Z" fill="white"/>
<path d="M71.938 23.5738L70.9496 16.4927L73.5088 16.1355L73.3354 14.8932L66.8257 15.8018L66.9991 17.0441L69.5458 16.6886L70.5342 23.7698L71.938 23.5738Z" fill="white"/>
<path d="M84.205 23.1583L84.8849 14.7817L83.4722 14.667L82.7922 23.0436L84.205 23.1583Z" fill="white"/>
<path d="M89.2156 23.6838L90.1695 19.1546L90.3866 17.6365L90.8898 18.9602L93.2784 24.5395L94.5549 24.8083L96.2868 16.5845L94.8999 16.2924L93.9486 20.8094L93.7062 22.3863L93.1675 20.9269L90.8493 15.4394L89.5605 15.168L87.8286 23.3917L89.2156 23.6838Z" fill="white"/>
<path d="M105.698 29.1086L108.917 22.7248L111.225 23.8883L111.789 22.7684L105.921 19.8086L105.356 20.9286L107.652 22.0865L104.432 28.4704L105.698 29.1086Z" fill="white"/>
<path d="M113.072 33.7062C115.06 35.1524 117.533 34.6095 118.965 32.6416C120.389 30.6839 120.144 28.1634 118.156 26.7172C116.157 25.2636 113.694 25.8139 112.27 27.7717C110.838 29.7395 111.073 32.2526 113.072 33.7062ZM113.879 32.6181C112.459 31.585 112.451 30.0597 113.477 28.6497C114.495 27.2499 115.956 26.7769 117.376 27.81C118.796 28.843 118.786 30.3711 117.768 31.7709C116.742 33.1809 115.299 33.6511 113.879 32.6181Z" fill="white"/>
<path d="M120.509 40.0687C122.102 41.721 123.682 41.6787 125.515 39.9112L128.982 36.5677L128.007 35.5564L124.531 38.9086C123.33 40.0667 122.468 40.1486 121.493 39.1373C120.535 38.1441 120.631 37.2676 121.832 36.1096L125.308 32.7574L124.333 31.7461L120.866 35.0896C119.033 36.8571 118.95 38.4524 120.509 40.0687Z" fill="white"/>
<path d="M127.011 47.9193C128.053 49.4557 129.57 49.9724 131.251 49.5449L131.308 48.0207C130.122 48.5068 128.938 48.3701 128.128 47.1763C127.157 45.7437 127.727 44.3719 129.159 43.4002C130.602 42.4215 132.077 42.4063 133.049 43.8389C133.859 45.0327 133.558 46.1762 132.658 47.1053L134.095 47.6157C135.124 46.2055 135.195 44.6115 134.153 43.0751C132.702 40.9366 130.318 40.7956 128.314 42.1545C126.311 43.5134 125.56 45.7808 127.011 47.9193Z" fill="white"/>
<path d="M130.961 54.2742L134.301 52.7722L135.957 56.456L132.617 57.958L133.198 59.2507L140.863 55.8045L140.282 54.5117L137.101 55.9417L135.445 52.2579L138.626 50.8279L138.044 49.5352L130.379 52.9814L130.961 54.2742Z" fill="white"/>
<path d="M139.067 69.793L140.128 69.599L139.562 66.502L138.501 66.696L139.067 69.793Z" fill="white"/>
<path d="M80.0002 48.8335L71.5002 71.5002L48.8335 80.0002L71.5002 88.5002L80.0002 111.167L88.5002 88.5002L111.167 80.0002L88.5002 71.5002L80.0002 48.8335Z" fill="white"/>
</svg>
