<svg width="39" height="29" viewBox="0 0 39 29" fill="none" xmlns="http://www.w3.org/2000/svg">
<path d="M17.72 1.44L16.6 8.96C15.24 8.8 14.04 8.64 13 8.64C10.2 8.64 9.48 9.12 9.48 11.12V12.56H16.44V28.48H0.76V10.72C0.76 4.56 4.36 0.879995 12.28 0.879995C14.12 0.879995 16.04 1.04 17.72 1.44ZM38.44 1.44L37.4 8.96C36.04 8.8 34.84 8.64 33.72 8.64C31 8.64 30.28 9.12 30.28 11.12V12.56H37.16V28.48H21.56V10.72C21.56 4.56 25.16 0.879995 33.08 0.879995C34.92 0.879995 36.84 1.04 38.44 1.44Z" fill="white"/>
</svg>
