<svg width="205" height="59" viewBox="0 0 205 59" fill="none" xmlns="http://www.w3.org/2000/svg">
<path opacity="0.5" d="M74.8999 53.2999C74.2332 53.2999 73.5999 53.2199 72.9999 53.0599C72.4132 52.9132 71.8599 52.6799 71.3399 52.3599C70.8332 52.0399 70.4266 51.5999 70.1199 51.0399C69.8132 50.4799 69.6599 49.8266 69.6599 49.0799C69.6599 47.3199 70.5999 46.1332 72.4799 45.5199V45.4599C71.8266 45.2066 71.3066 44.8332 70.9199 44.3399C70.5332 43.8332 70.3399 43.2332 70.3399 42.5399C70.3399 41.4732 70.7666 40.6132 71.6199 39.9599C72.4866 39.2932 73.5599 38.9599 74.8399 38.9599C76.1332 38.9599 77.2066 39.2866 78.0599 39.9399C78.9132 40.5932 79.3399 41.4599 79.3399 42.5399C79.3399 43.9399 78.6399 44.9132 77.2399 45.4599V45.5199C78.0532 45.7599 78.7199 46.1932 79.2399 46.8199C79.7599 47.4332 80.0199 48.1866 80.0199 49.0799C80.0199 50.5199 79.5199 51.5866 78.5199 52.2799C77.5332 52.9599 76.3266 53.2999 74.8999 53.2999ZM74.8999 51.8999C75.9666 51.8999 76.8066 51.6532 77.4199 51.1599C78.0332 50.6532 78.3399 49.9599 78.3399 49.0799C78.3399 48.1732 78.0266 47.4599 77.3999 46.9399C76.7866 46.4199 75.9332 46.1599 74.8399 46.1599C73.7599 46.1599 72.9132 46.4199 72.2999 46.9399C71.6866 47.4599 71.3799 48.1732 71.3799 49.0799C71.3799 49.9732 71.6866 50.6666 72.2999 51.1599C72.9266 51.6532 73.7932 51.8999 74.8999 51.8999ZM72.7399 44.2399C73.2599 44.6399 73.9599 44.8399 74.8399 44.8399C75.7199 44.8399 76.4132 44.6399 76.9199 44.2399C77.4399 43.8399 77.6999 43.2932 77.6999 42.5999C77.6999 41.9066 77.4399 41.3599 76.9199 40.9599C76.4132 40.5599 75.7199 40.3599 74.8399 40.3599C73.9599 40.3599 73.2599 40.5599 72.7399 40.9599C72.2332 41.3599 71.9799 41.9066 71.9799 42.5999C71.9799 43.2932 72.2332 43.8399 72.7399 44.2399ZM85.2032 52.9999V38.6999H91.8832C93.1365 38.6999 94.1498 39.0599 94.9232 39.7799C95.7098 40.4999 96.1032 41.4466 96.1032 42.6199C96.1032 44.4466 95.2765 45.6266 93.6232 46.1599V46.2199C94.3298 46.4732 94.8298 46.8732 95.1232 47.4199C95.4298 47.9532 95.6165 48.7666 95.6832 49.8599C95.8165 51.6866 96.0365 52.7066 96.3432 52.9199V52.9999H94.4032C94.2565 52.8799 94.1498 52.6266 94.0832 52.2399C94.0298 51.8532 93.9632 51.0399 93.8832 49.7999C93.8165 48.7599 93.5565 48.0266 93.1032 47.5999C92.6632 47.1732 91.9565 46.9599 90.9832 46.9599H87.0032V52.9999H85.2032ZM87.0032 40.2599V45.4999H91.2432C92.2298 45.4999 92.9765 45.2732 93.4832 44.8199C93.9898 44.3532 94.2432 43.7066 94.2432 42.8799C94.2432 41.9866 94.0165 41.3266 93.5632 40.8999C93.1098 40.4732 92.3698 40.2599 91.3432 40.2599H87.0032ZM98.2891 52.9999V38.6999H108.389V40.2799H100.089V44.7999H107.629V46.3199H100.089V51.3399H108.629V52.9999H98.2891ZM114.571 52.9999L109.591 38.6999H111.531L115.051 49.3399L115.611 51.2599H115.651C115.877 50.4066 116.064 49.7666 116.211 49.3399L119.691 38.6999H121.571L116.551 52.9999H114.571ZM123.153 52.9999V38.6999H124.953V52.9999H123.153ZM127.664 52.9999V38.6999H137.764V40.2799H129.464V44.7999H137.004V46.3199H129.464V51.3399H138.004V52.9999H127.664ZM142.746 52.9999L139.046 38.6999H140.926L143.186 47.9999L143.726 50.4199H143.766C143.992 49.4066 144.192 48.5866 144.366 47.9599L146.946 38.6999H148.886L151.386 47.9599L151.966 50.4199H152.006C152.232 49.3932 152.419 48.5866 152.566 47.9999L154.946 38.6999H156.766L152.786 52.9999H151.066L148.446 42.9199L147.926 40.7399H147.886C147.686 41.6332 147.506 42.3599 147.346 42.9199L144.546 52.9999H142.746ZM163.392 53.2799C161.472 53.2799 159.992 52.8066 158.952 51.8599C157.925 50.9132 157.372 49.6799 157.292 48.1599H159.052C159.292 50.6132 160.765 51.8399 163.472 51.8399C164.498 51.8399 165.318 51.6132 165.932 51.1599C166.558 50.6932 166.872 50.0266 166.872 49.1599C166.872 48.7732 166.798 48.4332 166.652 48.1399C166.505 47.8466 166.325 47.6066 166.112 47.4199C165.912 47.2332 165.605 47.0599 165.192 46.8999C164.778 46.7399 164.392 46.6132 164.032 46.5199C163.685 46.4266 163.205 46.3132 162.592 46.1799C161.858 46.0199 161.252 45.8599 160.772 45.6999C160.292 45.5266 159.812 45.2932 159.332 44.9999C158.852 44.7066 158.492 44.3332 158.252 43.8799C158.025 43.4132 157.912 42.8532 157.912 42.1999C157.912 41.0266 158.352 40.1066 159.232 39.4399C160.125 38.7599 161.305 38.4199 162.772 38.4199C165.985 38.4199 167.792 39.9066 168.192 42.8799H166.492C166.358 41.8666 165.978 41.1066 165.352 40.5999C164.725 40.0799 163.878 39.8199 162.812 39.8199C161.825 39.8199 161.038 40.0199 160.452 40.4199C159.878 40.8199 159.592 41.3866 159.592 42.1199C159.592 42.4399 159.652 42.7266 159.772 42.9799C159.905 43.2199 160.072 43.4266 160.272 43.5999C160.485 43.7599 160.758 43.9066 161.092 44.0399C161.438 44.1732 161.778 44.2866 162.112 44.3799C162.445 44.4599 162.852 44.5466 163.332 44.6399C163.998 44.7732 164.545 44.8999 164.972 45.0199C165.398 45.1266 165.872 45.2932 166.392 45.5199C166.912 45.7466 167.312 46.0066 167.592 46.2999C167.885 46.5932 168.132 46.9799 168.332 47.4599C168.545 47.9266 168.652 48.4732 168.652 49.0999C168.652 50.4066 168.165 51.4332 167.192 52.1799C166.232 52.9132 164.965 53.2799 163.392 53.2799Z" fill="white"/>
<path d="M28.1609 43.4286C32.184 43.4286 36.207 41.7144 39.0805 39.4286L40.8048 37.7143L50 46.8573L47.7013 48.5715C42.5288 53.143 35.6323 56 28.1609 56C12.0689 56 0 44 0 28C0 12 12.0689 0 28.1609 0C35.6323 0 42.5288 2.85714 47.7013 7.42856L50 9.14287L40.8048 17.7142L39.0805 16C36.207 13.1429 32.184 12 28.1609 12C18.9657 12 12.6436 18.2857 12.6436 27.4286C12.6436 36.5715 18.9657 43.4286 28.1609 43.4286Z" fill="white"/>
<path d="M36.7814 27.9999C36.7814 33.0493 32.6646 37.1426 27.5859 37.1426C22.5074 37.1426 18.3906 33.0493 18.3906 27.9999C18.3906 22.9504 22.5074 18.8569 27.5859 18.8569C32.6646 18.8569 36.7814 22.9504 36.7814 27.9999Z" fill="white"/>
<path d="M78.0914 1.96885C78.4489 1.19398 79.5501 1.19398 79.9076 1.96885L82.4328 7.44363C82.5785 7.75944 82.8778 7.97688 83.2231 8.01783L89.2103 8.72771C90.0577 8.82818 90.398 9.87556 89.7715 10.4549L85.3451 14.5484C85.0897 14.7845 84.9754 15.1364 85.0432 15.4775L86.2182 21.391C86.3845 22.228 85.4935 22.8753 84.7489 22.4585L79.4879 19.5136C79.1845 19.3437 78.8145 19.3437 78.5111 19.5136L73.2501 22.4585C72.5055 22.8753 71.6145 22.228 71.7808 21.391L72.9558 15.4775C73.0236 15.1364 72.9093 14.7845 72.6539 14.5484L68.2275 10.4549C67.601 9.87556 67.9413 8.82818 68.7887 8.72771L74.7759 8.01783C75.1212 7.97688 75.4205 7.75944 75.5662 7.44363L78.0914 1.96885Z" fill="white"/>
<path d="M106.598 1.88295C106.961 1.12561 108.039 1.12561 108.402 1.88295L111.07 7.45302C111.219 7.76341 111.516 7.97553 111.858 8.01457L118.118 8.72928C118.977 8.82732 119.315 9.89488 118.67 10.4696L114.094 14.5446C113.827 14.7821 113.707 15.1438 113.779 15.4935L115.002 21.4178C115.174 22.2496 114.296 22.9031 113.548 22.5001L107.974 19.4959C107.678 19.3362 107.322 19.3362 107.026 19.4959L101.452 22.5001C100.704 22.9031 99.8265 22.2496 99.9981 21.4178L101.221 15.4935C101.293 15.1438 101.173 14.7821 100.906 14.5446L96.3303 10.4696C95.6849 9.89488 96.0232 8.82732 96.8819 8.72928L103.142 8.01457C103.484 7.97553 103.781 7.76341 103.93 7.45302L106.598 1.88295Z" fill="white"/>
<path d="M134.586 2.06137C134.937 1.26861 136.063 1.2686 136.414 2.06137L138.797 7.43426C138.94 7.75546 139.24 7.97832 139.589 8.02132L145.303 8.72597C146.139 8.82901 146.481 9.85555 145.874 10.4392L141.597 14.5527C141.353 14.7872 141.245 15.1289 141.308 15.4611L142.435 21.3611C142.596 22.2037 141.691 22.8446 140.95 22.413L136.003 19.5332C135.692 19.3521 135.308 19.3521 134.997 19.5332L130.05 22.413C129.309 22.8446 128.404 22.2037 128.565 21.3611L129.692 15.4611C129.755 15.1289 129.647 14.7872 129.403 14.5527L125.126 10.4392C124.519 9.85555 124.861 8.82901 125.697 8.72597L131.411 8.02132C131.76 7.97832 132.06 7.75545 132.203 7.43426L134.586 2.06137Z" fill="white"/>
<path d="M162.598 1.88295C162.961 1.12561 164.039 1.12561 164.402 1.88295L167.07 7.45302C167.219 7.76341 167.516 7.97553 167.858 8.01457L174.118 8.72928C174.977 8.82732 175.315 9.89488 174.67 10.4696L170.094 14.5446C169.827 14.7821 169.707 15.1438 169.779 15.4935L171.002 21.4178C171.174 22.2496 170.296 22.9031 169.548 22.5001L163.974 19.4959C163.678 19.3362 163.322 19.3362 163.026 19.4959L157.452 22.5001C156.704 22.9031 155.826 22.2496 155.998 21.4178L157.221 15.4935C157.293 15.1438 157.173 14.7821 156.906 14.5446L152.33 10.4696C151.685 9.89488 152.023 8.82732 152.882 8.72928L159.142 8.01457C159.484 7.97553 159.781 7.76341 159.93 7.45302L162.598 1.88295Z" fill="white"/>
<path d="M191.092 1.96885C191.449 1.19398 192.551 1.19398 192.908 1.96885L195.433 7.44363C195.579 7.75944 195.878 7.97688 196.224 8.01783L202.211 8.72771C203.058 8.82818 203.399 9.87556 202.772 10.4549L198.346 14.5484C198.09 14.7845 197.976 15.1364 198.044 15.4775L199.219 21.391C199.385 22.228 198.494 22.8753 197.749 22.4585L192.488 19.5136C192.185 19.3437 191.815 19.3437 191.512 19.5136L186.251 22.4585C185.506 22.8753 184.615 22.228 184.781 21.391L185.956 15.4775C186.024 15.1364 185.91 14.7845 185.654 14.5484L181.228 10.4549C180.601 9.87556 180.942 8.82818 181.789 8.72771L187.776 8.01783C188.122 7.97688 188.421 7.75944 188.567 7.44363L191.092 1.96885Z" fill="white"/>
</svg>
