<svg width="100" height="100" viewBox="0 0 100 100" fill="none" xmlns="http://www.w3.org/2000/svg">
<path d="M99.5 50C99.5 77.3381 77.3381 99.5 50 99.5C22.6619 99.5 0.500014 77.3381 0.500009 50C0.500004 22.6619 22.6619 0.499996 50 0.499991C77.3381 0.499986 99.5 22.6619 99.5 50Z" stroke="white"/>
<path d="M85.5327 51.9022C85.4516 53.0675 86.2579 53.7916 87.4361 53.9128L85.4484 54.0182L85.4092 54.5813L88.123 54.77L88.2895 52.3769L87.5465 52.3252L87.4415 53.8346C86.7272 53.5963 86.2774 53.1721 86.3388 52.2883C86.4106 51.256 87.1968 50.7999 88.3074 50.8771C89.3944 50.9527 90.1261 51.5066 90.0499 52.6015C89.9912 53.4461 89.4402 53.9107 88.7567 54.0204L89.2509 54.8249C90.2222 54.531 90.8106 53.7546 90.8873 52.6519C91.0004 51.0251 89.9133 50.0458 88.3726 49.9386C86.7068 49.8228 85.6262 50.557 85.5327 51.9022Z" fill="white"/>
<path d="M84.1996 60.1972L84.9601 60.3879L85.6483 57.6427L87.1084 58.0087L86.5383 60.2824L87.2987 60.4731L87.8688 58.1994L89.2224 58.5388L88.5341 61.2839L89.2945 61.4746L90.1982 57.8701L85.1033 56.5927L84.1996 60.1972Z" fill="white"/>
<path d="M82.802 63.9762L86.9176 65.717L86.2885 67.2044L87.0106 67.5098L88.6108 63.7263L87.8888 63.4209L87.2627 64.9011L83.1471 63.1603L82.802 63.9762Z" fill="white"/>
<path d="M79.1281 70.5557L83.4094 73.5988L83.9226 72.8767L79.6413 69.8336L79.1281 70.5557Z" fill="white"/>
<path d="M77.2926 72.9821L79.4254 74.9365L80.1729 75.5365L79.3007 75.3859L75.5395 74.8952L74.9886 75.4963L78.8611 79.0451L79.4597 78.3919L77.3327 76.4428L76.5615 75.8106L77.518 75.9853L81.2075 76.4846L81.7637 75.8777L77.8911 72.329L77.2926 72.9821Z" fill="white"/>
<path d="M69.1506 80.0761L71.5633 83.8375L70.2039 84.7094L70.6272 85.3693L74.085 83.1514L73.6617 82.4915L72.3089 83.3592L69.8963 79.5978L69.1506 80.0761Z" fill="white"/>
<path d="M64.2321 82.622C62.8214 83.2311 62.3263 84.7344 62.9292 86.1307C63.529 87.5198 64.9627 88.1901 66.3734 87.581C67.7913 86.9688 68.2793 85.4686 67.6795 84.0795C67.0765 82.6832 65.65 82.0098 64.2321 82.622ZM64.5606 83.4024C65.5682 82.9673 66.391 83.4489 66.823 84.4493C67.2518 85.4426 67.0413 86.3789 66.0337 86.814C65.026 87.2491 64.2073 86.7572 63.7785 85.7639C63.3465 84.7635 63.5529 83.8375 64.5606 83.4024Z" fill="white"/>
<path d="M58.3855 84.5807C56.9887 84.9083 56.5065 85.7704 56.87 87.3197L57.5576 90.2506L58.4124 90.0501L57.723 87.1116C57.4849 86.0964 57.7164 85.6073 58.5712 85.4068C59.4108 85.2098 59.8509 85.5414 60.0891 86.5565L60.7785 89.495L61.6333 89.2944L60.9457 86.3636C60.5822 84.8142 59.7517 84.2601 58.3855 84.5807Z" fill="white"/>
<path d="M52.2207 85.5201C51.0626 85.5917 50.3017 86.2435 49.9968 87.2835L50.7985 87.7995C50.9144 87.0068 51.3647 86.4135 52.2646 86.3578C53.3444 86.2911 53.9009 87.0343 53.9676 88.1141C54.0349 89.2018 53.5737 90 52.4938 90.0668C51.594 90.1224 51.0745 89.5968 50.8614 88.8167L50.1293 89.4275C50.5605 90.4298 51.3954 90.9751 52.5534 90.9035C54.1653 90.8039 55 89.5663 54.9066 88.0561C54.8133 86.5459 53.8326 85.4205 52.2207 85.5201Z" fill="white"/>
<path d="M47.3042 85.5807L47.0401 87.8546L44.5325 87.5633L44.7966 85.2894L43.9167 85.1872L43.3107 90.4047L44.1906 90.5069L44.4421 88.3421L46.9496 88.6333L46.6982 90.7982L47.5781 90.9004L48.1841 85.6829L47.3042 85.5807Z" fill="white"/>
<path d="M36.4272 84.9375L36.1904 85.5687L38.0327 86.26L38.2696 85.6288L36.4272 84.9375Z" fill="white"/>
<path d="M30.7592 79.944C29.7877 79.2954 28.759 79.6361 28.0691 80.5989L28.9639 78.8209L28.4944 78.5075L26.984 80.77L28.9791 82.102L29.3927 81.4825L28.1343 80.6424C28.6956 80.1405 29.2871 79.9604 30.0239 80.4523C30.8846 81.0269 30.8905 81.9358 30.2724 82.8617C29.6673 83.768 28.8234 84.1283 27.9106 83.5189C27.2064 83.0488 27.0764 82.3399 27.3204 81.6921L26.3767 81.7219C26.1499 82.7111 26.532 83.6072 27.4514 84.2209C28.8076 85.1264 30.1973 84.6685 31.0548 83.384C31.982 81.9952 31.8806 80.6927 30.7592 79.944Z" fill="white"/>
<path d="M24.2867 74.7357L23.7466 75.3039L25.7981 77.2536L24.7611 78.3447L23.062 76.7299L22.522 77.2981L24.2211 78.913L23.2597 79.9245L21.2083 77.9748L20.6682 78.5431L23.3618 81.103L26.9803 77.2956L24.2867 74.7357Z" fill="white"/>
<path d="M21.6576 71.6143L18.1123 74.3344L17.1292 73.0531L16.5072 73.5303L19.0078 76.7896L19.6298 76.3123L18.6515 75.0372L22.1969 72.3171L21.6576 71.6143Z" fill="white"/>
<path d="M17.7566 65.2045L12.9985 67.4295L13.3738 68.2319L18.1319 66.007L17.7566 65.2045Z" fill="white"/>
<path d="M16.5427 62.408L13.7877 63.2906L12.896 63.6422L13.4594 62.9595L15.7509 59.9368L15.5022 59.1604L10.5 60.7629L10.7703 61.6066L13.5178 60.7264L14.4492 60.3703L13.8231 61.1142L11.5596 64.0703L11.8108 64.8542L16.8129 63.2517L16.5427 62.408Z" fill="white"/>
<path d="M14.4177 51.9047L9.95559 52.146L9.86839 50.5334L9.08556 50.5757L9.30737 54.6777L10.0902 54.6354L10.0034 53.0306L14.4655 52.7893L14.4177 51.9047Z" fill="white"/>
<path d="M14.6401 46.2037C14.8115 44.6767 13.7523 43.5007 12.2409 43.3311C10.7372 43.1623 9.44365 44.0742 9.27224 45.6012C9.09996 47.1359 10.16 48.3042 11.6637 48.473C13.1751 48.6426 14.4678 47.7385 14.6401 46.2037ZM13.7996 46.1015C13.6771 47.1922 12.8507 47.6674 11.7677 47.5459C10.6926 47.4252 9.98429 46.7777 10.1067 45.687C10.2292 44.5962 11.0625 44.1297 12.1377 44.2504C13.2206 44.3719 13.922 45.0108 13.7996 46.1015Z" fill="white"/>
<path d="M15.8011 40.2504C16.2077 38.8745 15.6974 38.0288 14.1712 37.5778L11.2842 36.7245L11.0353 37.5666L13.9299 38.422C14.9298 38.7176 15.2402 39.1608 14.9914 40.0029C14.7469 40.8299 14.241 41.0482 13.241 40.7527L10.3465 39.8972L10.0977 40.7393L12.9847 41.5925C14.5108 42.0436 15.4034 41.5961 15.8011 40.2504Z" fill="white"/>
<path d="M18.0307 34.4007C18.5455 33.3609 18.3593 32.3764 17.6094 31.5941L16.7626 32.0322C17.3922 32.5275 17.6824 33.2136 17.2824 34.0215C16.8024 34.9911 15.8808 35.1034 14.9112 34.6234C13.9346 34.14 13.4721 33.3424 13.9521 32.3728C14.3521 31.5649 15.0666 31.3762 15.8493 31.58L15.6843 30.641C14.6004 30.5156 13.7117 30.9679 13.1969 32.0077C12.4804 33.455 13.1378 34.7952 14.4938 35.4665C15.8498 36.1378 17.3142 35.8481 18.0307 34.4007Z" fill="white"/>
<path d="M20.368 30.1555L18.5267 28.7954L20.0265 26.7649L21.8679 28.125L22.3942 27.4124L18.1692 24.2916L17.6429 25.0042L19.3959 26.2991L17.8961 28.3296L16.143 27.0347L15.6167 27.7473L19.8417 30.8681L20.368 30.1555Z" fill="white"/>
<path d="M26.202 21.0939L25.7686 20.5774L24.2612 21.8423L24.6946 22.3588L26.202 21.0939Z" fill="white"/>
<path d="M33.4021 18.5375C34.4451 18.0115 34.6553 16.9484 34.1572 15.8738L35.2638 17.5283L35.7678 17.2741L34.5428 14.8452L32.4009 15.9254L32.7363 16.5904L34.0872 15.9091C34.2475 16.6448 34.1129 17.2483 33.3219 17.6472C32.3979 18.1132 31.604 17.6707 31.1027 16.6767C30.612 15.7037 30.7141 14.7918 31.694 14.2976C32.45 13.9163 33.131 14.1524 33.5746 14.6837L34.0135 13.8478C33.2643 13.1632 32.2963 13.0543 31.3093 13.5521C29.8533 14.2864 29.5673 15.7214 30.2627 17.1003C31.0147 18.5913 32.1981 19.1447 33.4021 18.5375Z" fill="white"/>
<path d="M40.9496 15.5113L40.7217 14.7612L38.0137 15.5838L37.5762 14.1436L39.8191 13.4623L39.5912 12.7121L37.3483 13.3935L36.9427 12.0583L39.6506 11.2356L39.4228 10.4855L35.8672 11.5657L37.394 16.5915L40.9496 15.5113Z" fill="white"/>
<path d="M44.9613 14.7338L44.3436 10.308L45.943 10.0848L45.8347 9.30836L41.7661 9.87622L41.8745 10.6527L43.4662 10.4305L44.0839 14.8562L44.9613 14.7338Z" fill="white"/>
<path d="M52.6282 14.474L53.0531 9.23867L52.1702 9.16699L51.7452 14.4024L52.6282 14.474Z" fill="white"/>
<path d="M55.7598 14.8026L56.3559 11.9719L56.4916 11.023L56.8061 11.8504L58.299 15.3374L59.0968 15.5054L60.1793 10.3656L59.3124 10.183L58.7179 13.0061L58.5664 13.9917L58.2297 13.0795L56.7808 9.64986L55.9753 9.48022L54.8929 14.6201L55.7598 14.8026Z" fill="white"/>
<path d="M66.0611 18.1931L68.0734 14.2032L69.5153 14.9305L69.8684 14.2305L66.2004 12.3806L65.8474 13.0806L67.2824 13.8043L65.2701 17.7942L66.0611 18.1931Z" fill="white"/>
<path d="M70.6698 21.0665C71.9124 21.9704 73.4583 21.6311 74.353 20.4011C75.243 19.1775 75.0899 17.6023 73.8473 16.6984C72.5983 15.7899 71.0588 16.1338 70.1687 17.3574C69.274 18.5873 69.4209 20.158 70.6698 21.0665ZM71.1742 20.3864C70.2866 19.7408 70.2821 18.7874 70.9231 17.9062C71.5596 17.0313 72.4726 16.7357 73.3602 17.3813C74.2477 18.027 74.2413 18.9821 73.6049 19.8569C72.9639 20.7382 72.0618 21.0321 71.1742 20.3864Z" fill="white"/>
<path d="M75.3181 25.0429C76.314 26.0756 77.3014 26.0492 78.447 24.9445L80.614 22.8548L80.0045 22.2228L77.8318 24.3179C77.0813 25.0417 76.5425 25.0929 75.933 24.4608C75.3344 23.8401 75.3943 23.2923 76.1448 22.5685L78.3175 20.4734L77.708 19.8413L75.541 21.931C74.3954 23.0357 74.344 24.0328 75.3181 25.0429Z" fill="white"/>
<path d="M79.3816 29.9498C80.0329 30.91 80.9814 31.233 82.0317 30.9658L82.0675 30.0132C81.3263 30.317 80.5863 30.2316 80.0803 29.4854C79.473 28.5901 79.8293 27.7327 80.7246 27.1254C81.6265 26.5137 82.5484 26.5042 83.1556 27.3995C83.6617 28.1457 83.4739 28.8604 82.911 29.4411L83.8094 29.7601C84.4525 28.8787 84.4968 27.8824 83.8455 26.9222C82.9389 25.5856 81.4488 25.4975 80.1966 26.3468C78.9443 27.1961 78.4751 28.6132 79.3816 29.9498Z" fill="white"/>
<path d="M81.8504 33.9213L83.9383 32.9826L84.9735 35.285L82.8856 36.2237L83.2489 37.0317L88.0395 34.8778L87.6763 34.0698L85.6885 34.9635L84.6533 32.6612L86.6411 31.7675L86.2778 30.9595L81.4872 33.1134L81.8504 33.9213Z" fill="white"/>
<path d="M86.9167 43.6207L87.58 43.4994L87.2261 41.5637L86.5629 41.685L86.9167 43.6207Z" fill="white"/>
<path d="M49.9999 30.5208L44.6874 44.6874L30.5208 49.9999L44.6874 55.3124L49.9999 69.4791L55.3124 55.3124L69.4791 49.9999L55.3124 44.6874L49.9999 30.5208Z" fill="white"/>
</svg>
